<mxfile host="app.diagrams.net" agent="Mozilla/5.0 (Windows NT 10.0; Win64; x64) AppleWebKit/537.36 (KHTML, like Gecko) Chrome/129.0.0.0 Safari/537.36" version="24.8.1" pages="2">
  <diagram id="C5RBs43oDa-KdzZeNtuy" name="Page-1">
    <mxGraphModel dx="942" dy="1070" grid="1" gridSize="10" guides="1" tooltips="1" connect="1" arrows="1" fold="1" page="1" pageScale="1" pageWidth="827" pageHeight="1169" math="0" shadow="0">
      <root>
        <mxCell id="WIyWlLk6GJQsqaUBKTNV-0" />
        <mxCell id="WIyWlLk6GJQsqaUBKTNV-1" parent="WIyWlLk6GJQsqaUBKTNV-0" />
        <mxCell id="WIyWlLk6GJQsqaUBKTNV-2" value="" style="rounded=0;html=1;jettySize=auto;orthogonalLoop=1;fontSize=11;endArrow=block;endFill=0;endSize=8;strokeWidth=1;shadow=0;labelBackgroundColor=none;edgeStyle=orthogonalEdgeStyle;exitX=0.5;exitY=1;exitDx=0;exitDy=0;entryX=0.5;entryY=0;entryDx=0;entryDy=0;" parent="WIyWlLk6GJQsqaUBKTNV-1" source="UPyuT2zWzt1L4V_A8vz_-17" target="UPyuT2zWzt1L4V_A8vz_-1" edge="1">
          <mxGeometry relative="1" as="geometry">
            <mxPoint x="460" y="120" as="sourcePoint" />
            <mxPoint x="460" y="150" as="targetPoint" />
          </mxGeometry>
        </mxCell>
        <mxCell id="UPyuT2zWzt1L4V_A8vz_-26" style="edgeStyle=orthogonalEdgeStyle;rounded=0;orthogonalLoop=1;jettySize=auto;html=1;exitX=1;exitY=0.5;exitDx=0;exitDy=0;entryX=0;entryY=0.5;entryDx=0;entryDy=0;startArrow=classic;startFill=1;" parent="WIyWlLk6GJQsqaUBKTNV-1" source="WIyWlLk6GJQsqaUBKTNV-11" target="UPyuT2zWzt1L4V_A8vz_-7" edge="1">
          <mxGeometry relative="1" as="geometry" />
        </mxCell>
        <mxCell id="UPyuT2zWzt1L4V_A8vz_-29" style="edgeStyle=orthogonalEdgeStyle;rounded=0;orthogonalLoop=1;jettySize=auto;html=1;exitX=0.5;exitY=1;exitDx=0;exitDy=0;entryX=0;entryY=0.5;entryDx=0;entryDy=0;" parent="WIyWlLk6GJQsqaUBKTNV-1" source="WIyWlLk6GJQsqaUBKTNV-11" target="UPyuT2zWzt1L4V_A8vz_-13" edge="1">
          <mxGeometry relative="1" as="geometry" />
        </mxCell>
        <mxCell id="WIyWlLk6GJQsqaUBKTNV-11" value="Close Curtains" style="rounded=0;whiteSpace=wrap;html=1;fontSize=12;glass=0;strokeWidth=1;shadow=0;" parent="WIyWlLk6GJQsqaUBKTNV-1" vertex="1">
          <mxGeometry x="300" y="320" width="120" height="40" as="geometry" />
        </mxCell>
        <mxCell id="UPyuT2zWzt1L4V_A8vz_-16" style="edgeStyle=orthogonalEdgeStyle;rounded=0;orthogonalLoop=1;jettySize=auto;html=1;exitX=0.5;exitY=1;exitDx=0;exitDy=0;entryX=0.5;entryY=0;entryDx=0;entryDy=0;" parent="WIyWlLk6GJQsqaUBKTNV-1" source="UPyuT2zWzt1L4V_A8vz_-1" target="UPyuT2zWzt1L4V_A8vz_-15" edge="1">
          <mxGeometry relative="1" as="geometry" />
        </mxCell>
        <mxCell id="UPyuT2zWzt1L4V_A8vz_-38" style="edgeStyle=orthogonalEdgeStyle;rounded=0;orthogonalLoop=1;jettySize=auto;html=1;exitX=1;exitY=0.5;exitDx=0;exitDy=0;" parent="WIyWlLk6GJQsqaUBKTNV-1" source="UPyuT2zWzt1L4V_A8vz_-1" target="UPyuT2zWzt1L4V_A8vz_-39" edge="1">
          <mxGeometry relative="1" as="geometry">
            <mxPoint x="640" y="180.28571428571433" as="targetPoint" />
          </mxGeometry>
        </mxCell>
        <mxCell id="UPyuT2zWzt1L4V_A8vz_-45" style="edgeStyle=orthogonalEdgeStyle;rounded=0;orthogonalLoop=1;jettySize=auto;html=1;exitX=0;exitY=0.5;exitDx=0;exitDy=0;" parent="WIyWlLk6GJQsqaUBKTNV-1" source="UPyuT2zWzt1L4V_A8vz_-1" target="UPyuT2zWzt1L4V_A8vz_-46" edge="1">
          <mxGeometry relative="1" as="geometry">
            <mxPoint x="320" y="180.28571428571433" as="targetPoint" />
          </mxGeometry>
        </mxCell>
        <mxCell id="UPyuT2zWzt1L4V_A8vz_-1" value="Introduction" style="rounded=0;whiteSpace=wrap;html=1;fontSize=12;glass=0;strokeWidth=1;shadow=0;" parent="WIyWlLk6GJQsqaUBKTNV-1" vertex="1">
          <mxGeometry x="400" y="160" width="120" height="40" as="geometry" />
        </mxCell>
        <mxCell id="UPyuT2zWzt1L4V_A8vz_-28" style="edgeStyle=orthogonalEdgeStyle;rounded=0;orthogonalLoop=1;jettySize=auto;html=1;exitX=0.5;exitY=1;exitDx=0;exitDy=0;entryX=1;entryY=0.5;entryDx=0;entryDy=0;" parent="WIyWlLk6GJQsqaUBKTNV-1" source="UPyuT2zWzt1L4V_A8vz_-7" target="UPyuT2zWzt1L4V_A8vz_-13" edge="1">
          <mxGeometry relative="1" as="geometry" />
        </mxCell>
        <mxCell id="UPyuT2zWzt1L4V_A8vz_-7" value="&lt;div&gt;Turn on right lamp&lt;/div&gt;" style="rounded=0;whiteSpace=wrap;html=1;fontSize=12;glass=0;strokeWidth=1;shadow=0;" parent="WIyWlLk6GJQsqaUBKTNV-1" vertex="1">
          <mxGeometry x="500" y="320" width="120" height="40" as="geometry" />
        </mxCell>
        <mxCell id="UPyuT2zWzt1L4V_A8vz_-31" style="edgeStyle=orthogonalEdgeStyle;rounded=0;orthogonalLoop=1;jettySize=auto;html=1;exitX=1;exitY=1;exitDx=0;exitDy=0;entryX=0;entryY=0.5;entryDx=0;entryDy=0;" parent="WIyWlLk6GJQsqaUBKTNV-1" source="UPyuT2zWzt1L4V_A8vz_-13" target="UPyuT2zWzt1L4V_A8vz_-30" edge="1">
          <mxGeometry relative="1" as="geometry" />
        </mxCell>
        <mxCell id="UPyuT2zWzt1L4V_A8vz_-13" value="&lt;div&gt;Are the&amp;nbsp;&lt;span style=&quot;background-color: initial;&quot;&gt;curtains&lt;/span&gt;&lt;/div&gt;&lt;div&gt;closed AND is the&lt;/div&gt;&lt;div&gt;right lamp on?&lt;/div&gt;" style="rhombus;whiteSpace=wrap;html=1;shadow=0;fontFamily=Helvetica;fontSize=12;align=center;strokeWidth=1;spacing=0;spacingTop=0;verticalAlign=middle;" parent="WIyWlLk6GJQsqaUBKTNV-1" vertex="1">
          <mxGeometry x="381.09000000000003" y="360" width="157.82" height="80" as="geometry" />
        </mxCell>
        <mxCell id="UPyuT2zWzt1L4V_A8vz_-24" style="edgeStyle=orthogonalEdgeStyle;rounded=0;orthogonalLoop=1;jettySize=auto;html=1;exitX=1;exitY=0.5;exitDx=0;exitDy=0;entryX=0.5;entryY=0;entryDx=0;entryDy=0;" parent="WIyWlLk6GJQsqaUBKTNV-1" source="UPyuT2zWzt1L4V_A8vz_-15" target="UPyuT2zWzt1L4V_A8vz_-7" edge="1">
          <mxGeometry relative="1" as="geometry" />
        </mxCell>
        <mxCell id="UPyuT2zWzt1L4V_A8vz_-25" style="edgeStyle=orthogonalEdgeStyle;rounded=0;orthogonalLoop=1;jettySize=auto;html=1;exitX=0;exitY=0.5;exitDx=0;exitDy=0;entryX=0.5;entryY=0;entryDx=0;entryDy=0;" parent="WIyWlLk6GJQsqaUBKTNV-1" source="UPyuT2zWzt1L4V_A8vz_-15" target="WIyWlLk6GJQsqaUBKTNV-11" edge="1">
          <mxGeometry relative="1" as="geometry" />
        </mxCell>
        <mxCell id="UPyuT2zWzt1L4V_A8vz_-15" value="&lt;div&gt;Find Key to Dumbwaiter&lt;/div&gt;" style="rounded=0;whiteSpace=wrap;html=1;fontSize=12;glass=0;strokeWidth=1;shadow=0;" parent="WIyWlLk6GJQsqaUBKTNV-1" vertex="1">
          <mxGeometry x="400" y="240" width="120" height="40" as="geometry" />
        </mxCell>
        <mxCell id="UPyuT2zWzt1L4V_A8vz_-17" value="&lt;div&gt;Start&lt;br&gt;&lt;/div&gt;" style="ellipse;whiteSpace=wrap;html=1;" parent="WIyWlLk6GJQsqaUBKTNV-1" vertex="1">
          <mxGeometry x="400" y="80" width="120" height="40" as="geometry" />
        </mxCell>
        <mxCell id="5iee3mP3i6XpT19i_H8E-14" style="edgeStyle=orthogonalEdgeStyle;rounded=0;orthogonalLoop=1;jettySize=auto;html=1;exitX=0;exitY=0.5;exitDx=0;exitDy=0;entryX=0;entryY=0;entryDx=0;entryDy=0;" edge="1" parent="WIyWlLk6GJQsqaUBKTNV-1" source="UPyuT2zWzt1L4V_A8vz_-20" target="UPyuT2zWzt1L4V_A8vz_-1">
          <mxGeometry relative="1" as="geometry">
            <Array as="points">
              <mxPoint x="280" y="460" />
              <mxPoint x="280" y="140" />
              <mxPoint x="400" y="140" />
            </Array>
          </mxGeometry>
        </mxCell>
        <mxCell id="UPyuT2zWzt1L4V_A8vz_-20" value="&lt;div&gt;No&lt;/div&gt;" style="shape=parallelogram;perimeter=parallelogramPerimeter;whiteSpace=wrap;html=1;fixedSize=1;spacing=0;verticalAlign=middle;" parent="WIyWlLk6GJQsqaUBKTNV-1" vertex="1">
          <mxGeometry x="320" y="440" width="80" height="40" as="geometry" />
        </mxCell>
        <mxCell id="UPyuT2zWzt1L4V_A8vz_-21" style="edgeStyle=orthogonalEdgeStyle;rounded=0;orthogonalLoop=1;jettySize=auto;html=1;entryX=1;entryY=0.5;entryDx=0;entryDy=0;exitX=0;exitY=1;exitDx=0;exitDy=0;" parent="WIyWlLk6GJQsqaUBKTNV-1" source="UPyuT2zWzt1L4V_A8vz_-13" target="UPyuT2zWzt1L4V_A8vz_-20" edge="1">
          <mxGeometry relative="1" as="geometry" />
        </mxCell>
        <mxCell id="UPyuT2zWzt1L4V_A8vz_-33" style="edgeStyle=orthogonalEdgeStyle;rounded=0;orthogonalLoop=1;jettySize=auto;html=1;exitX=0.5;exitY=1;exitDx=0;exitDy=0;" parent="WIyWlLk6GJQsqaUBKTNV-1" source="UPyuT2zWzt1L4V_A8vz_-30" target="UPyuT2zWzt1L4V_A8vz_-34" edge="1">
          <mxGeometry relative="1" as="geometry">
            <mxPoint x="640" y="560" as="targetPoint" />
          </mxGeometry>
        </mxCell>
        <mxCell id="UPyuT2zWzt1L4V_A8vz_-30" value="Yes" style="shape=parallelogram;perimeter=parallelogramPerimeter;whiteSpace=wrap;html=1;fixedSize=1;spacing=0;verticalAlign=middle;" parent="WIyWlLk6GJQsqaUBKTNV-1" vertex="1">
          <mxGeometry x="520" y="440" width="80" height="40" as="geometry" />
        </mxCell>
        <mxCell id="UPyuT2zWzt1L4V_A8vz_-35" style="edgeStyle=orthogonalEdgeStyle;rounded=0;orthogonalLoop=1;jettySize=auto;html=1;exitX=0.5;exitY=1;exitDx=0;exitDy=0;entryX=0.5;entryY=0;entryDx=0;entryDy=0;" parent="WIyWlLk6GJQsqaUBKTNV-1" source="UPyuT2zWzt1L4V_A8vz_-34" target="UPyuT2zWzt1L4V_A8vz_-37" edge="1">
          <mxGeometry relative="1" as="geometry">
            <mxPoint x="560.1428571428571" y="640" as="targetPoint" />
          </mxGeometry>
        </mxCell>
        <mxCell id="UPyuT2zWzt1L4V_A8vz_-36" value="Retrieve key" style="edgeLabel;html=1;align=center;verticalAlign=middle;resizable=0;points=[];" parent="UPyuT2zWzt1L4V_A8vz_-35" vertex="1" connectable="0">
          <mxGeometry x="0.1111" y="1" relative="1" as="geometry">
            <mxPoint x="-2" y="-2" as="offset" />
          </mxGeometry>
        </mxCell>
        <mxCell id="UPyuT2zWzt1L4V_A8vz_-34" value="Key shadow illuminated" style="rounded=0;whiteSpace=wrap;html=1;" parent="WIyWlLk6GJQsqaUBKTNV-1" vertex="1">
          <mxGeometry x="500" y="520" width="120" height="40" as="geometry" />
        </mxCell>
        <mxCell id="UPyuT2zWzt1L4V_A8vz_-42" style="edgeStyle=orthogonalEdgeStyle;rounded=0;orthogonalLoop=1;jettySize=auto;html=1;exitX=0.5;exitY=1;exitDx=0;exitDy=0;" parent="WIyWlLk6GJQsqaUBKTNV-1" source="UPyuT2zWzt1L4V_A8vz_-37" edge="1" target="5iee3mP3i6XpT19i_H8E-0">
          <mxGeometry relative="1" as="geometry">
            <mxPoint x="560.1428571428571" y="680" as="targetPoint" />
          </mxGeometry>
        </mxCell>
        <mxCell id="UPyuT2zWzt1L4V_A8vz_-43" value="&lt;div&gt;Pull up car&lt;/div&gt;" style="edgeLabel;html=1;align=center;verticalAlign=middle;resizable=0;points=[];" parent="UPyuT2zWzt1L4V_A8vz_-42" vertex="1" connectable="0">
          <mxGeometry x="-0.0847" relative="1" as="geometry">
            <mxPoint as="offset" />
          </mxGeometry>
        </mxCell>
        <mxCell id="UPyuT2zWzt1L4V_A8vz_-37" value="&lt;div&gt;Unlock Dumbwaiter&lt;/div&gt;" style="rounded=0;whiteSpace=wrap;html=1;" parent="WIyWlLk6GJQsqaUBKTNV-1" vertex="1">
          <mxGeometry x="500" y="600" width="120" height="40" as="geometry" />
        </mxCell>
        <mxCell id="5iee3mP3i6XpT19i_H8E-11" style="edgeStyle=orthogonalEdgeStyle;rounded=0;orthogonalLoop=1;jettySize=auto;html=1;exitX=0.5;exitY=1;exitDx=0;exitDy=0;" edge="1" parent="WIyWlLk6GJQsqaUBKTNV-1" source="UPyuT2zWzt1L4V_A8vz_-39" target="5iee3mP3i6XpT19i_H8E-3">
          <mxGeometry relative="1" as="geometry" />
        </mxCell>
        <mxCell id="5iee3mP3i6XpT19i_H8E-15" style="edgeStyle=orthogonalEdgeStyle;rounded=0;orthogonalLoop=1;jettySize=auto;html=1;entryX=0.75;entryY=0;entryDx=0;entryDy=0;" edge="1" parent="WIyWlLk6GJQsqaUBKTNV-1" source="UPyuT2zWzt1L4V_A8vz_-39" target="UPyuT2zWzt1L4V_A8vz_-1">
          <mxGeometry relative="1" as="geometry">
            <Array as="points">
              <mxPoint x="660" y="140" />
              <mxPoint x="490" y="140" />
            </Array>
          </mxGeometry>
        </mxCell>
        <mxCell id="UPyuT2zWzt1L4V_A8vz_-39" value="Reveal safe behind painting" style="rounded=0;whiteSpace=wrap;html=1;" parent="WIyWlLk6GJQsqaUBKTNV-1" vertex="1">
          <mxGeometry x="600" y="160" width="120" height="40" as="geometry" />
        </mxCell>
        <mxCell id="5iee3mP3i6XpT19i_H8E-16" style="edgeStyle=orthogonalEdgeStyle;rounded=0;orthogonalLoop=1;jettySize=auto;html=1;exitX=0.5;exitY=1;exitDx=0;exitDy=0;" edge="1" parent="WIyWlLk6GJQsqaUBKTNV-1" source="UPyuT2zWzt1L4V_A8vz_-46" target="5iee3mP3i6XpT19i_H8E-17">
          <mxGeometry relative="1" as="geometry">
            <mxPoint x="140" y="240" as="targetPoint" />
          </mxGeometry>
        </mxCell>
        <mxCell id="UPyuT2zWzt1L4V_A8vz_-46" value="&lt;div&gt;Attempt to unlock door&lt;/div&gt;" style="rounded=0;whiteSpace=wrap;html=1;" parent="WIyWlLk6GJQsqaUBKTNV-1" vertex="1">
          <mxGeometry x="40" y="160" width="120" height="40" as="geometry" />
        </mxCell>
        <mxCell id="5iee3mP3i6XpT19i_H8E-0" value="" style="rounded=0;whiteSpace=wrap;html=1;" vertex="1" parent="WIyWlLk6GJQsqaUBKTNV-1">
          <mxGeometry x="500" y="680" width="120" height="40" as="geometry" />
        </mxCell>
        <mxCell id="5iee3mP3i6XpT19i_H8E-4" style="edgeStyle=orthogonalEdgeStyle;rounded=0;orthogonalLoop=1;jettySize=auto;html=1;exitX=0.5;exitY=1;exitDx=0;exitDy=0;" edge="1" parent="WIyWlLk6GJQsqaUBKTNV-1" source="5iee3mP3i6XpT19i_H8E-3" target="5iee3mP3i6XpT19i_H8E-5">
          <mxGeometry relative="1" as="geometry">
            <mxPoint x="780" y="240" as="targetPoint" />
          </mxGeometry>
        </mxCell>
        <mxCell id="5iee3mP3i6XpT19i_H8E-3" value="Attempt to open safe" style="rounded=0;whiteSpace=wrap;html=1;" vertex="1" parent="WIyWlLk6GJQsqaUBKTNV-1">
          <mxGeometry x="600" y="240" width="120" height="40" as="geometry" />
        </mxCell>
        <mxCell id="5iee3mP3i6XpT19i_H8E-6" style="edgeStyle=orthogonalEdgeStyle;rounded=0;orthogonalLoop=1;jettySize=auto;html=1;exitX=0.5;exitY=1;exitDx=0;exitDy=0;entryX=0.5;entryY=0;entryDx=0;entryDy=0;" edge="1" parent="WIyWlLk6GJQsqaUBKTNV-1" source="5iee3mP3i6XpT19i_H8E-5" target="5iee3mP3i6XpT19i_H8E-7">
          <mxGeometry relative="1" as="geometry">
            <mxPoint x="780" y="360" as="targetPoint" />
          </mxGeometry>
        </mxCell>
        <mxCell id="5iee3mP3i6XpT19i_H8E-12" style="edgeStyle=orthogonalEdgeStyle;rounded=0;orthogonalLoop=1;jettySize=auto;html=1;entryX=0.5;entryY=1;entryDx=0;entryDy=0;" edge="1" parent="WIyWlLk6GJQsqaUBKTNV-1" source="5iee3mP3i6XpT19i_H8E-5" target="5iee3mP3i6XpT19i_H8E-8">
          <mxGeometry relative="1" as="geometry" />
        </mxCell>
        <mxCell id="5iee3mP3i6XpT19i_H8E-5" value="Correct code?" style="rhombus;whiteSpace=wrap;html=1;" vertex="1" parent="WIyWlLk6GJQsqaUBKTNV-1">
          <mxGeometry x="610" y="350" width="100" height="80" as="geometry" />
        </mxCell>
        <mxCell id="5iee3mP3i6XpT19i_H8E-7" value="Yes" style="shape=parallelogram;perimeter=parallelogramPerimeter;whiteSpace=wrap;html=1;fixedSize=1;spacing=0;verticalAlign=middle;" vertex="1" parent="WIyWlLk6GJQsqaUBKTNV-1">
          <mxGeometry x="620" y="460" width="80" height="40" as="geometry" />
        </mxCell>
        <mxCell id="5iee3mP3i6XpT19i_H8E-13" style="edgeStyle=orthogonalEdgeStyle;rounded=0;orthogonalLoop=1;jettySize=auto;html=1;exitX=0.5;exitY=0;exitDx=0;exitDy=0;entryX=0.75;entryY=0;entryDx=0;entryDy=0;" edge="1" parent="WIyWlLk6GJQsqaUBKTNV-1" source="5iee3mP3i6XpT19i_H8E-8" target="UPyuT2zWzt1L4V_A8vz_-1">
          <mxGeometry relative="1" as="geometry" />
        </mxCell>
        <mxCell id="5iee3mP3i6XpT19i_H8E-8" value="&lt;div&gt;No&lt;/div&gt;" style="shape=parallelogram;perimeter=parallelogramPerimeter;whiteSpace=wrap;html=1;fixedSize=1;spacing=0;verticalAlign=middle;" vertex="1" parent="WIyWlLk6GJQsqaUBKTNV-1">
          <mxGeometry x="720" y="320" width="80" height="40" as="geometry" />
        </mxCell>
        <mxCell id="5iee3mP3i6XpT19i_H8E-18" style="edgeStyle=orthogonalEdgeStyle;rounded=0;orthogonalLoop=1;jettySize=auto;html=1;exitX=1;exitY=0.5;exitDx=0;exitDy=0;entryX=0;entryY=0.5;entryDx=0;entryDy=0;" edge="1" parent="WIyWlLk6GJQsqaUBKTNV-1" source="5iee3mP3i6XpT19i_H8E-17" target="5iee3mP3i6XpT19i_H8E-19">
          <mxGeometry relative="1" as="geometry">
            <mxPoint x="210" y="280" as="targetPoint" />
          </mxGeometry>
        </mxCell>
        <mxCell id="5iee3mP3i6XpT19i_H8E-26" style="edgeStyle=orthogonalEdgeStyle;rounded=0;orthogonalLoop=1;jettySize=auto;html=1;exitX=0.5;exitY=1;exitDx=0;exitDy=0;entryX=0.5;entryY=0;entryDx=0;entryDy=0;" edge="1" parent="WIyWlLk6GJQsqaUBKTNV-1" source="5iee3mP3i6XpT19i_H8E-17" target="5iee3mP3i6XpT19i_H8E-24">
          <mxGeometry relative="1" as="geometry" />
        </mxCell>
        <mxCell id="5iee3mP3i6XpT19i_H8E-17" value="Correct code?" style="rhombus;whiteSpace=wrap;html=1;" vertex="1" parent="WIyWlLk6GJQsqaUBKTNV-1">
          <mxGeometry x="50" y="240" width="100" height="80" as="geometry" />
        </mxCell>
        <mxCell id="5iee3mP3i6XpT19i_H8E-29" style="edgeStyle=orthogonalEdgeStyle;rounded=0;orthogonalLoop=1;jettySize=auto;html=1;exitX=0.5;exitY=0;exitDx=0;exitDy=0;entryX=0.25;entryY=0;entryDx=0;entryDy=0;" edge="1" parent="WIyWlLk6GJQsqaUBKTNV-1" source="5iee3mP3i6XpT19i_H8E-19" target="UPyuT2zWzt1L4V_A8vz_-1">
          <mxGeometry relative="1" as="geometry">
            <mxPoint x="430" y="160" as="targetPoint" />
            <Array as="points">
              <mxPoint x="220" y="130" />
              <mxPoint x="431" y="130" />
            </Array>
          </mxGeometry>
        </mxCell>
        <mxCell id="5iee3mP3i6XpT19i_H8E-19" value="&lt;div&gt;No&lt;/div&gt;" style="shape=parallelogram;perimeter=parallelogramPerimeter;whiteSpace=wrap;html=1;fixedSize=1;spacing=0;verticalAlign=middle;" vertex="1" parent="WIyWlLk6GJQsqaUBKTNV-1">
          <mxGeometry x="180" y="260" width="80" height="40" as="geometry" />
        </mxCell>
        <mxCell id="5iee3mP3i6XpT19i_H8E-27" style="edgeStyle=orthogonalEdgeStyle;rounded=0;orthogonalLoop=1;jettySize=auto;html=1;entryX=0.5;entryY=0;entryDx=0;entryDy=0;" edge="1" parent="WIyWlLk6GJQsqaUBKTNV-1" source="5iee3mP3i6XpT19i_H8E-24" target="5iee3mP3i6XpT19i_H8E-28">
          <mxGeometry relative="1" as="geometry">
            <mxPoint x="100" y="440" as="targetPoint" />
          </mxGeometry>
        </mxCell>
        <mxCell id="5iee3mP3i6XpT19i_H8E-24" value="Yes" style="shape=parallelogram;perimeter=parallelogramPerimeter;whiteSpace=wrap;html=1;fixedSize=1;spacing=0;verticalAlign=middle;" vertex="1" parent="WIyWlLk6GJQsqaUBKTNV-1">
          <mxGeometry x="60" y="360" width="80" height="40" as="geometry" />
        </mxCell>
        <mxCell id="5iee3mP3i6XpT19i_H8E-28" value="&lt;div&gt;Level End&lt;/div&gt;" style="ellipse;whiteSpace=wrap;html=1;" vertex="1" parent="WIyWlLk6GJQsqaUBKTNV-1">
          <mxGeometry x="40" y="440" width="120" height="40" as="geometry" />
        </mxCell>
      </root>
    </mxGraphModel>
  </diagram>
  <diagram id="KoyYBckEaCarAUzyGeRn" name="Dumbwaiter">
    <mxGraphModel dx="1026" dy="1070" grid="1" gridSize="10" guides="1" tooltips="1" connect="1" arrows="1" fold="1" page="1" pageScale="1" pageWidth="850" pageHeight="1100" math="0" shadow="0">
      <root>
        <mxCell id="0" />
        <mxCell id="1" parent="0" />
        <mxCell id="D7PytdFEyzYIZ_U1UunU-1" value="" style="rounded=0;html=1;jettySize=auto;orthogonalLoop=1;fontSize=11;endArrow=classic;endFill=1;endSize=8;strokeWidth=1;shadow=0;labelBackgroundColor=none;edgeStyle=orthogonalEdgeStyle;exitX=0.5;exitY=1;exitDx=0;exitDy=0;entryX=0.5;entryY=0;entryDx=0;entryDy=0;" edge="1" parent="1" source="D7PytdFEyzYIZ_U1UunU-15" target="D7PytdFEyzYIZ_U1UunU-28">
          <mxGeometry relative="1" as="geometry">
            <mxPoint x="460" y="120" as="sourcePoint" />
            <mxPoint x="460" y="160" as="targetPoint" />
          </mxGeometry>
        </mxCell>
        <mxCell id="D7PytdFEyzYIZ_U1UunU-47" style="edgeStyle=orthogonalEdgeStyle;rounded=0;orthogonalLoop=1;jettySize=auto;html=1;exitX=0;exitY=0.5;exitDx=0;exitDy=0;entryX=1;entryY=0.5;entryDx=0;entryDy=0;" edge="1" parent="1" source="D7PytdFEyzYIZ_U1UunU-4" target="D7PytdFEyzYIZ_U1UunU-38">
          <mxGeometry relative="1" as="geometry" />
        </mxCell>
        <mxCell id="D7PytdFEyzYIZ_U1UunU-4" value="Close Curtains" style="rounded=0;whiteSpace=wrap;html=1;fontSize=12;glass=0;strokeWidth=1;shadow=0;" vertex="1" parent="1">
          <mxGeometry x="520" y="560" width="120" height="40" as="geometry" />
        </mxCell>
        <mxCell id="D7PytdFEyzYIZ_U1UunU-15" value="&lt;div&gt;Investigate Dumbwaiter&lt;br&gt;&lt;/div&gt;" style="ellipse;whiteSpace=wrap;html=1;" vertex="1" parent="1">
          <mxGeometry x="400" y="80" width="120" height="40" as="geometry" />
        </mxCell>
        <mxCell id="D7PytdFEyzYIZ_U1UunU-29" style="edgeStyle=orthogonalEdgeStyle;rounded=0;orthogonalLoop=1;jettySize=auto;html=1;exitX=0;exitY=0.5;exitDx=0;exitDy=0;entryX=1;entryY=0.5;entryDx=0;entryDy=0;" edge="1" parent="1" source="D7PytdFEyzYIZ_U1UunU-28" target="D7PytdFEyzYIZ_U1UunU-30">
          <mxGeometry relative="1" as="geometry">
            <mxPoint x="360" y="200" as="targetPoint" />
          </mxGeometry>
        </mxCell>
        <mxCell id="D7PytdFEyzYIZ_U1UunU-32" style="edgeStyle=orthogonalEdgeStyle;rounded=0;orthogonalLoop=1;jettySize=auto;html=1;exitX=1;exitY=0.5;exitDx=0;exitDy=0;entryX=0;entryY=0.5;entryDx=0;entryDy=0;" edge="1" parent="1" source="D7PytdFEyzYIZ_U1UunU-28" target="D7PytdFEyzYIZ_U1UunU-31">
          <mxGeometry relative="1" as="geometry" />
        </mxCell>
        <mxCell id="D7PytdFEyzYIZ_U1UunU-28" value="Has key?" style="rhombus;whiteSpace=wrap;html=1;" vertex="1" parent="1">
          <mxGeometry x="420" y="160" width="80" height="80" as="geometry" />
        </mxCell>
        <mxCell id="D7PytdFEyzYIZ_U1UunU-33" style="edgeStyle=orthogonalEdgeStyle;rounded=0;orthogonalLoop=1;jettySize=auto;html=1;exitX=0;exitY=0.5;exitDx=0;exitDy=0;entryX=1;entryY=0.5;entryDx=0;entryDy=0;" edge="1" parent="1" source="D7PytdFEyzYIZ_U1UunU-30" target="D7PytdFEyzYIZ_U1UunU-34">
          <mxGeometry relative="1" as="geometry">
            <mxPoint x="280" y="200" as="targetPoint" />
          </mxGeometry>
        </mxCell>
        <mxCell id="D7PytdFEyzYIZ_U1UunU-30" value="&lt;div&gt;No&lt;/div&gt;" style="shape=parallelogram;perimeter=parallelogramPerimeter;whiteSpace=wrap;html=1;fixedSize=1;spacing=0;verticalAlign=middle;" vertex="1" parent="1">
          <mxGeometry x="310" y="180" width="80" height="40" as="geometry" />
        </mxCell>
        <mxCell id="D7PytdFEyzYIZ_U1UunU-31" value="Yes" style="shape=parallelogram;perimeter=parallelogramPerimeter;whiteSpace=wrap;html=1;fixedSize=1;spacing=0;verticalAlign=middle;" vertex="1" parent="1">
          <mxGeometry x="520" y="180" width="80" height="40" as="geometry" />
        </mxCell>
        <mxCell id="D7PytdFEyzYIZ_U1UunU-34" value="Lighting Puzzle&lt;div&gt;(see below)&lt;/div&gt;" style="rounded=0;whiteSpace=wrap;html=1;fontSize=12;glass=0;strokeWidth=1;shadow=0;" vertex="1" parent="1">
          <mxGeometry x="160" y="180" width="120" height="40" as="geometry" />
        </mxCell>
        <mxCell id="D7PytdFEyzYIZ_U1UunU-37" value="Dumbwaiter Step (Includes Curtains/Lamps)" style="text;html=1;align=center;verticalAlign=middle;whiteSpace=wrap;rounded=0;fontSize=24;fontStyle=1" vertex="1" parent="1">
          <mxGeometry x="40" y="40" width="310" height="80" as="geometry" />
        </mxCell>
        <mxCell id="D7PytdFEyzYIZ_U1UunU-40" style="edgeStyle=orthogonalEdgeStyle;rounded=0;orthogonalLoop=1;jettySize=auto;html=1;exitX=0.5;exitY=1;exitDx=0;exitDy=0;entryX=0.5;entryY=0;entryDx=0;entryDy=0;" edge="1" parent="1" source="D7PytdFEyzYIZ_U1UunU-38" target="D7PytdFEyzYIZ_U1UunU-39">
          <mxGeometry relative="1" as="geometry" />
        </mxCell>
        <mxCell id="D7PytdFEyzYIZ_U1UunU-38" value="&lt;div&gt;Use lamps&lt;br&gt;&lt;/div&gt;" style="ellipse;whiteSpace=wrap;html=1;" vertex="1" parent="1">
          <mxGeometry x="240" y="560" width="120" height="40" as="geometry" />
        </mxCell>
        <mxCell id="D7PytdFEyzYIZ_U1UunU-41" style="edgeStyle=orthogonalEdgeStyle;rounded=0;orthogonalLoop=1;jettySize=auto;html=1;exitX=1;exitY=0.5;exitDx=0;exitDy=0;entryX=0;entryY=0.5;entryDx=0;entryDy=0;" edge="1" parent="1" source="D7PytdFEyzYIZ_U1UunU-39" target="D7PytdFEyzYIZ_U1UunU-42">
          <mxGeometry relative="1" as="geometry">
            <mxPoint x="400" y="680" as="targetPoint" />
          </mxGeometry>
        </mxCell>
        <mxCell id="D7PytdFEyzYIZ_U1UunU-48" style="edgeStyle=orthogonalEdgeStyle;rounded=0;orthogonalLoop=1;jettySize=auto;html=1;exitX=0.5;exitY=1;exitDx=0;exitDy=0;entryX=0.5;entryY=0;entryDx=0;entryDy=0;" edge="1" parent="1" source="D7PytdFEyzYIZ_U1UunU-39" target="D7PytdFEyzYIZ_U1UunU-44">
          <mxGeometry relative="1" as="geometry">
            <mxPoint x="300" y="760" as="targetPoint" />
          </mxGeometry>
        </mxCell>
        <mxCell id="D7PytdFEyzYIZ_U1UunU-39" value="Curtains open?" style="rhombus;whiteSpace=wrap;html=1;" vertex="1" parent="1">
          <mxGeometry x="260" y="640" width="80" height="80" as="geometry" />
        </mxCell>
        <mxCell id="D7PytdFEyzYIZ_U1UunU-46" style="edgeStyle=orthogonalEdgeStyle;rounded=0;orthogonalLoop=1;jettySize=auto;html=1;entryX=0.5;entryY=1;entryDx=0;entryDy=0;" edge="1" parent="1" source="D7PytdFEyzYIZ_U1UunU-42" target="D7PytdFEyzYIZ_U1UunU-4">
          <mxGeometry relative="1" as="geometry" />
        </mxCell>
        <mxCell id="D7PytdFEyzYIZ_U1UunU-53" value="&quot;I don&#39;t need to turn on the lamp.&lt;div&gt;There&#39;s enough light in here.&quot;&lt;br&gt;&lt;/div&gt;" style="edgeLabel;html=1;align=center;verticalAlign=middle;resizable=0;points=[];" vertex="1" connectable="0" parent="D7PytdFEyzYIZ_U1UunU-46">
          <mxGeometry x="-0.0444" y="1" relative="1" as="geometry">
            <mxPoint as="offset" />
          </mxGeometry>
        </mxCell>
        <mxCell id="D7PytdFEyzYIZ_U1UunU-42" value="Yes" style="shape=parallelogram;perimeter=parallelogramPerimeter;whiteSpace=wrap;html=1;fixedSize=1;spacing=0;verticalAlign=middle;" vertex="1" parent="1">
          <mxGeometry x="370" y="660" width="80" height="40" as="geometry" />
        </mxCell>
        <mxCell id="D7PytdFEyzYIZ_U1UunU-49" style="edgeStyle=orthogonalEdgeStyle;rounded=0;orthogonalLoop=1;jettySize=auto;html=1;exitX=1;exitY=0.5;exitDx=0;exitDy=0;entryX=0;entryY=0.5;entryDx=0;entryDy=0;" edge="1" parent="1" source="D7PytdFEyzYIZ_U1UunU-44" target="D7PytdFEyzYIZ_U1UunU-50">
          <mxGeometry relative="1" as="geometry">
            <mxPoint x="400" y="780" as="targetPoint" />
          </mxGeometry>
        </mxCell>
        <mxCell id="D7PytdFEyzYIZ_U1UunU-44" value="&lt;div&gt;No&lt;/div&gt;" style="shape=parallelogram;perimeter=parallelogramPerimeter;whiteSpace=wrap;html=1;fixedSize=1;spacing=0;verticalAlign=middle;" vertex="1" parent="1">
          <mxGeometry x="260" y="760" width="80" height="40" as="geometry" />
        </mxCell>
        <mxCell id="D7PytdFEyzYIZ_U1UunU-51" style="edgeStyle=orthogonalEdgeStyle;rounded=0;orthogonalLoop=1;jettySize=auto;html=1;exitX=1;exitY=0.5;exitDx=0;exitDy=0;entryX=0;entryY=0.5;entryDx=0;entryDy=0;" edge="1" parent="1" source="D7PytdFEyzYIZ_U1UunU-50" target="D7PytdFEyzYIZ_U1UunU-52">
          <mxGeometry relative="1" as="geometry">
            <mxPoint x="560" y="780" as="targetPoint" />
          </mxGeometry>
        </mxCell>
        <mxCell id="D7PytdFEyzYIZ_U1UunU-50" value="Turn on lamp, reveal key shadow" style="rounded=0;whiteSpace=wrap;html=1;fontSize=12;glass=0;strokeWidth=1;shadow=0;" vertex="1" parent="1">
          <mxGeometry x="400" y="760" width="120" height="40" as="geometry" />
        </mxCell>
        <mxCell id="D7PytdFEyzYIZ_U1UunU-52" value="Close Curtains" style="rounded=0;whiteSpace=wrap;html=1;fontSize=12;glass=0;strokeWidth=1;shadow=0;" vertex="1" parent="1">
          <mxGeometry x="560" y="760" width="120" height="40" as="geometry" />
        </mxCell>
      </root>
    </mxGraphModel>
  </diagram>
</mxfile>
